<svg xmlns="http://www.w3.org/2000/svg" xmlns:xlink="http://www.w3.org/1999/xlink" width="320" zoomAndPan="magnify" viewBox="0 0 240 239.999995" height="320" preserveAspectRatio="xMidYMid meet" version="1.0"><defs><filter x="0%" y="0%" width="100%" height="100%" id="d50d0f9fd5"><feColorMatrix values="0 0 0 0 1 0 0 0 0 1 0 0 0 0 1 0 0 0 1 0" color-interpolation-filters="sRGB"/></filter><clipPath id="3f85b08acd"><path d="M 30 21.554688 L 210 21.554688 L 210 201.554688 L 30 201.554688 Z M 30 21.554688 " clip-rule="nonzero"/></clipPath><clipPath id="a968ceb6b7"><path d="M 120 21.554688 C 70.292969 21.554688 30 61.851562 30 111.554688 C 30 161.261719 70.292969 201.554688 120 201.554688 C 169.707031 201.554688 210 161.261719 210 111.554688 C 210 61.851562 169.707031 21.554688 120 21.554688 Z M 120 21.554688 " clip-rule="nonzero"/></clipPath><clipPath id="8408a4d277"><path d="M 0 0.554688 L 180 0.554688 L 180 180.554688 L 0 180.554688 Z M 0 0.554688 " clip-rule="nonzero"/></clipPath><clipPath id="8685ec84d6"><path d="M 90 0.554688 C 40.292969 0.554688 0 40.851562 0 90.554688 C 0 140.261719 40.292969 180.554688 90 180.554688 C 139.707031 180.554688 180 140.261719 180 90.554688 C 180 40.851562 139.707031 0.554688 90 0.554688 Z M 90 0.554688 " clip-rule="nonzero"/></clipPath><clipPath id="7c7473a524"><rect x="0" width="180" y="0" height="181"/></clipPath><mask id="3d7cead200"><g filter="url(#d50d0f9fd5)"><rect x="-24" width="288" fill="#000000" y="-23.999999" height="287.999994" fill-opacity="0.3"/></g></mask><clipPath id="cc56ae12df"><path d="M 0.238281 0.320312 L 150.960938 0.320312 L 150.960938 89.839844 L 0.238281 89.839844 Z M 0.238281 0.320312 " clip-rule="nonzero"/></clipPath><clipPath id="109586ab2f"><rect x="0" width="151" y="0" height="90"/></clipPath><mask id="de9c24f519"><g filter="url(#d50d0f9fd5)"><rect x="-24" width="288" fill="#000000" y="-23.999999" height="287.999994" fill-opacity="0.5"/></g></mask><clipPath id="d635245e1d"><path d="M 0.777344 0.554688 L 53.222656 0.554688 L 53.222656 53 L 0.777344 53 Z M 0.777344 0.554688 " clip-rule="nonzero"/></clipPath><clipPath id="c72681417a"><path d="M 27 0.554688 C 12.515625 0.554688 0.777344 12.292969 0.777344 26.777344 C 0.777344 41.257812 12.515625 53 27 53 C 41.484375 53 53.222656 41.257812 53.222656 26.777344 C 53.222656 12.292969 41.484375 0.554688 27 0.554688 Z M 27 0.554688 " clip-rule="nonzero"/></clipPath><clipPath id="bdccff4088"><path d="M 0.777344 0.554688 L 53.222656 0.554688 L 53.222656 53 L 0.777344 53 Z M 0.777344 0.554688 " clip-rule="nonzero"/></clipPath><clipPath id="a8fa150802"><path d="M 27 0.554688 C 12.515625 0.554688 0.777344 12.292969 0.777344 26.777344 C 0.777344 41.257812 12.515625 53 27 53 C 41.484375 53 53.222656 41.257812 53.222656 26.777344 C 53.222656 12.292969 41.484375 0.554688 27 0.554688 Z M 27 0.554688 " clip-rule="nonzero"/></clipPath><clipPath id="9231a37ec2"><rect x="0" width="54" y="0" height="53"/></clipPath><clipPath id="613f0de1aa"><rect x="0" width="54" y="0" height="53"/></clipPath></defs><g clip-path="url(#3f85b08acd)"><g clip-path="url(#a968ceb6b7)"><g transform="matrix(1, 0, 0, 1, 30, 21)"><g clip-path="url(#7c7473a524)"><g clip-path="url(#8408a4d277)"><g clip-path="url(#8685ec84d6)"><path fill="#000000" d="M 0 0.554688 L 180 0.554688 L 180 180.554688 L 0 180.554688 Z M 0 0.554688 " fill-opacity="1" fill-rule="nonzero"/></g></g></g></g></g></g><g mask="url(#3d7cead200)"><g transform="matrix(1, 0, 0, 1, 60, 40)"><g clip-path="url(#109586ab2f)"><g clip-path="url(#cc56ae12df)"><path stroke-linecap="butt" transform="matrix(0.64822, 0.377241, -0.377241, 0.64822, 3.070377, 1.174173)" fill="none" stroke-linejoin="miter" d="M -0.000659983 1.99751 L 225.632091 2.002334 " stroke="#00bf63" stroke-width="4" stroke-opacity="1" stroke-miterlimit="4"/></g></g></g></g><path stroke-linecap="butt" transform="matrix(0.71921, 0.212688, -0.212688, 0.71921, 37.242129, 75.355733)" fill="none" stroke-linejoin="miter" d="M -0.000890655 1.998616 L 238.818499 1.997041 " stroke="#00bf63" stroke-width="4" stroke-opacity="1" stroke-miterlimit="4"/><g mask="url(#de9c24f519)"><g transform="matrix(1, 0, 0, 1, 93, 67)"><g clip-path="url(#613f0de1aa)"><g clip-path="url(#d635245e1d)"><g clip-path="url(#c72681417a)"><g transform="matrix(1, 0, 0, 1, -0.000000000000014211, -0.000000000000014211)"><g clip-path="url(#9231a37ec2)"><g clip-path="url(#bdccff4088)"><g clip-path="url(#a8fa150802)"><path fill="#00bf63" d="M 0.777344 0.554688 L 53.222656 0.554688 L 53.222656 53 L 0.777344 53 Z M 0.777344 0.554688 " fill-opacity="1" fill-rule="nonzero"/></g></g></g></g></g></g></g></g></g></svg>