<svg xmlns="http://www.w3.org/2000/svg" xmlns:xlink="http://www.w3.org/1999/xlink" width="320" zoomAndPan="magnify" viewBox="0 0 240 239.999995" height="320" preserveAspectRatio="xMidYMid meet" version="1.0"><defs><filter x="0%" y="0%" width="100%" height="100%" id="9ede6e94cf"><feColorMatrix values="0 0 0 0 1 0 0 0 0 1 0 0 0 0 1 0 0 0 1 0" color-interpolation-filters="sRGB"/></filter><mask id="694854ff3d"><g filter="url(#9ede6e94cf)"><rect x="-24" width="288" fill="#000000" y="-23.999999" height="287.999994" fill-opacity="0.3"/></g></mask><clipPath id="cd94810a4f"><path d="M 0.960938 0.078125 L 94.558594 0.078125 L 94.558594 68 L 0.960938 68 Z M 0.960938 0.078125 " clip-rule="nonzero"/></clipPath><clipPath id="bfdfb8cd52"><rect x="0" width="95" y="0" height="68"/></clipPath><mask id="9b133cd225"><g filter="url(#9ede6e94cf)"><rect x="-24" width="288" fill="#000000" y="-23.999999" height="287.999994" fill-opacity="0.5"/></g></mask><clipPath id="3f4a38f0f7"><path d="M 0.125 0.839844 L 39.71875 0.839844 L 39.71875 40.433594 L 0.125 40.433594 Z M 0.125 0.839844 " clip-rule="nonzero"/></clipPath><clipPath id="bf953ca5f2"><path d="M 19.921875 0.839844 C 8.988281 0.839844 0.125 9.703125 0.125 20.636719 C 0.125 31.570312 8.988281 40.433594 19.921875 40.433594 C 30.855469 40.433594 39.71875 31.570312 39.71875 20.636719 C 39.71875 9.703125 30.855469 0.839844 19.921875 0.839844 Z M 19.921875 0.839844 " clip-rule="nonzero"/></clipPath><clipPath id="a950dae4ec"><path d="M 0.125 0.839844 L 39.71875 0.839844 L 39.71875 40.433594 L 0.125 40.433594 Z M 0.125 0.839844 " clip-rule="nonzero"/></clipPath><clipPath id="24f593f9d9"><path d="M 19.921875 0.839844 C 8.988281 0.839844 0.125 9.703125 0.125 20.636719 C 0.125 31.570312 8.988281 40.433594 19.921875 40.433594 C 30.855469 40.433594 39.71875 31.570312 39.71875 20.636719 C 39.71875 9.703125 30.855469 0.839844 19.921875 0.839844 Z M 19.921875 0.839844 " clip-rule="nonzero"/></clipPath><clipPath id="469b5773b3"><rect x="0" width="40" y="0" height="41"/></clipPath><clipPath id="9bf0e8c9d0"><rect x="0" width="40" y="0" height="41"/></clipPath></defs><g mask="url(#694854ff3d)"><g transform="matrix(1, 0, 0, 1, 54, 52)"><g clip-path="url(#bfdfb8cd52)"><g clip-path="url(#cd94810a4f)"><path stroke-linecap="butt" transform="matrix(0.610062, 0.436262, -0.436262, 0.610062, 3.647226, 0.990456)" fill="none" stroke-linejoin="miter" d="M -0.000154707 1.501261 L 147.289876 1.502461 " stroke="#00bf63" stroke-width="3" stroke-opacity="1" stroke-miterlimit="4"/></g></g></g></g><path stroke-linecap="butt" transform="matrix(0.75, -0.000000000000000279, 0.000000000000000279, 0.75, 52.558444, 117.749992)" fill="none" stroke-linejoin="miter" d="M 0.000199534 1.50001 L 131.635625 1.50001 " stroke="#00bf63" stroke-width="3" stroke-opacity="1" stroke-miterlimit="4"/><g mask="url(#9b133cd225)"><g transform="matrix(1, 0, 0, 1, 82, 72)"><g clip-path="url(#9bf0e8c9d0)"><g clip-path="url(#3f4a38f0f7)"><g clip-path="url(#bf953ca5f2)"><g transform="matrix(1, 0, 0, 1, -0.000000000000014211, -0.000000000000014211)"><g clip-path="url(#469b5773b3)"><g clip-path="url(#a950dae4ec)"><g clip-path="url(#24f593f9d9)"><path fill="#00bf63" d="M 0.125 0.839844 L 39.71875 0.839844 L 39.71875 40.433594 L 0.125 40.433594 Z M 0.125 0.839844 " fill-opacity="1" fill-rule="nonzero"/></g></g></g></g></g></g></g></g></g><path stroke-linecap="butt" transform="matrix(0.485188, -0.57192, 0.57192, 0.485188, 88.104139, 159.244648)" fill="none" stroke-linejoin="miter" d="M 15.000829 2.001993 L 173.381901 2.000455 " stroke="#00bf63" stroke-width="4" stroke-opacity="1" stroke-miterlimit="4"/><path stroke-linecap="round" transform="matrix(0.485188, -0.57192, 0.57192, 0.485188, 88.104139, 159.244648)" fill-opacity="1" fill="#00bf63" fill-rule="nonzero" stroke-linejoin="round" d="M 2.001228 1.999649 C 1.999442 -1.311417 4.684681 -3.999244 7.999117 -3.997058 C 11.314155 -4.002214 13.99801 -1.313605 13.999796 1.997461 C 14.00098 5.315869 11.312371 7.999724 8.001305 8.00151 C 4.686869 7.999324 1.999042 5.314085 2.001228 1.999649 " stroke="#00bf63" stroke-width="4" stroke-opacity="1" stroke-miterlimit="4"/><path stroke-linecap="round" transform="matrix(0.485188, -0.57192, 0.57192, 0.485188, 88.104139, 159.244648)" fill-opacity="1" fill="#00bf63" fill-rule="nonzero" stroke-linejoin="round" d="M 186.378133 1.998826 C 186.375947 5.313262 183.690708 8.001089 180.379642 8.002875 C 177.065206 8.000689 174.381351 5.312081 174.379565 2.001014 C 174.38175 -1.313421 177.06699 -4.001248 180.381425 -3.999062 C 183.692492 -4.000849 186.380318 -1.315609 186.378133 1.998826 " stroke="#00bf63" stroke-width="4" stroke-opacity="1" stroke-miterlimit="4"/><path stroke-linecap="butt" transform="matrix(0.75, 0, 0, 0.75, 24.000001, 72.84007)" fill="none" stroke-linejoin="miter" d="M 14.999999 1.999699 L 87.401046 1.999699 " stroke="#00bf63" stroke-width="4" stroke-opacity="1" stroke-miterlimit="4"/><path stroke-linecap="round" transform="matrix(0.75, 0, 0, 0.75, 24.000001, 72.84007)" fill-opacity="1" fill="#00bf63" fill-rule="nonzero" stroke-linejoin="round" d="M 1.999999 1.999699 C 1.999999 -1.312801 4.687499 -4.000302 7.999999 -4.000302 C 11.312499 -4.000302 13.999999 -1.312801 13.999999 1.999699 C 13.999999 5.312199 11.312499 7.999699 7.999999 7.999699 C 4.687499 7.999699 1.999999 5.312199 1.999999 1.999699 " stroke="#00bf63" stroke-width="4" stroke-opacity="1" stroke-miterlimit="4"/><path stroke-linecap="round" transform="matrix(0.75, 0, 0, 0.75, 24.000001, 72.84007)" fill-opacity="1" fill="#00bf63" fill-rule="nonzero" stroke-linejoin="round" d="M 100.401047 1.999699 C 100.401047 5.312199 97.713546 7.999699 94.401046 7.999699 C 91.088546 7.999699 88.401046 5.312199 88.401046 1.999699 C 88.401046 -1.312801 91.088546 -4.000302 94.401046 -4.000302 C 97.713546 -4.000302 100.401047 -1.312801 100.401047 1.999699 " stroke="#00bf63" stroke-width="4" stroke-opacity="1" stroke-miterlimit="4"/></svg>